<svg width="320" height="585" viewBox="0 0 320 585" fill="none" xmlns="http://www.w3.org/2000/svg">
<path d="M308.185 491H11.8154C11.8154 494.497 6.52308 497.333 0 497.333V579.667C0 582.583 4.40615 584.944 9.84615 584.944H310.154C315.594 584.944 320 582.583 320 579.667V497.333C313.477 497.333 308.185 494.497 308.185 491Z" fill="white"/>
<path d="M308.185 490.833H11.8154C11.8154 472.565 6.52308 457.744 0 457.744V27.5751C0 12.3399 4.40615 0.000152588 9.84615 0.000152588H310.154C315.594 0.000152588 320 12.3399 320 27.5751V457.744C313.477 457.744 308.185 472.565 308.185 490.833Z" fill="white"/>
<path d="M24 491L296.289 491" stroke="#C7C7C7" stroke-width="2" stroke-dasharray="8 4"/>
<path d="M24 491L296.289 491" stroke="#C7C7C7" stroke-width="2" stroke-dasharray="8 4"/>
</svg>
