<svg width="112" height="34" viewBox="0 0 112 34" fill="none" xmlns="http://www.w3.org/2000/svg">
<path d="M5.708 33.8C3.836 30.944 2.18 27.68 2.18 22.304C2.18 16.928 3.836 13.664 5.708 10.808H7.364C5.636 13.568 4.076 17.6 4.076 22.304C4.076 27.008 5.636 31.04 7.364 33.8H5.708ZM14.7385 13.46C15.2798 13.3667 15.8212 13.3293 16.3625 13.348C16.9225 13.3667 17.3332 13.4413 17.5945 13.572C18.3785 13.908 19.0318 14.3467 19.5545 14.888C19.9465 15.2987 20.2545 15.8773 20.4785 16.624C20.7025 17.352 20.7865 18.0707 20.7305 18.78C20.7118 19.004 20.6838 19.2093 20.6465 19.396C20.6092 19.564 20.5532 19.7133 20.4785 19.844C20.4225 19.9747 20.3385 20.1147 20.2265 20.264C20.1145 20.4133 19.9745 20.572 19.8065 20.74C19.1158 21.412 18.4905 21.86 17.9305 22.084C17.3892 22.308 16.5772 22.448 15.4945 22.504C15.2145 22.5227 14.9625 22.5413 14.7385 22.56C14.5332 22.5787 14.3745 22.6067 14.2625 22.644C14.1505 22.6627 14.0852 22.6813 14.0665 22.7C13.9732 22.7933 13.9545 23.232 14.0105 24.016C14.0478 24.8373 14.0852 25.8733 14.1225 27.124C14.1412 28.02 14.1412 28.5707 14.1225 28.776C14.1225 28.9627 14.0665 29.112 13.9545 29.224C13.8425 29.336 13.7585 29.392 13.7025 29.392L13.4785 29.196C13.3292 29.0467 13.2172 28.832 13.1425 28.552C13.1425 28.5333 13.1332 28.496 13.1145 28.44C13.1145 28.384 13.1052 28.3093 13.0865 28.216C13.0865 28.1227 13.0865 28.02 13.0865 27.908C13.0865 27.796 13.0772 27.6747 13.0585 27.544C13.0585 27.3947 13.0492 27.236 13.0305 27.068C13.0305 26.8813 13.0305 26.6947 13.0305 26.508C13.0305 26.3027 13.0212 26.088 13.0025 25.864C13.0025 25.6213 12.9932 25.3693 12.9745 25.108C12.9745 24.8467 12.9745 24.576 12.9745 24.296C12.9558 23.456 12.9372 22.7093 12.9185 22.056C12.8998 21.384 12.8718 20.8053 12.8345 20.32C12.8158 19.8347 12.7878 19.4427 12.7505 19.144C12.6572 18.416 12.6012 17.52 12.5825 16.456C12.5638 15.3733 12.5918 14.692 12.6665 14.412C12.7412 14.1507 12.9185 13.9547 13.1985 13.824C13.4785 13.6933 13.9918 13.572 14.7385 13.46ZM17.7905 14.748C17.6038 14.6547 17.4452 14.5987 17.3145 14.58C17.1838 14.5427 17.0158 14.524 16.8105 14.524C16.6052 14.5053 16.2598 14.496 15.7745 14.496C14.4118 14.496 13.6745 14.6453 13.5625 14.944C13.5065 15.0747 13.5252 15.8213 13.6185 17.184C13.6372 17.5947 13.6652 18.1827 13.7025 18.948C13.7585 19.6947 13.7958 20.1613 13.8145 20.348C13.8145 20.4413 13.8145 20.5253 13.8145 20.6C13.8145 20.6747 13.8145 20.74 13.8145 20.796C13.8145 20.8333 13.8238 20.8707 13.8425 20.908C13.8425 21.0013 13.8705 21.1133 13.9265 21.244C14.0012 21.3747 14.0478 21.4493 14.0665 21.468C14.0852 21.468 14.1038 21.4773 14.1225 21.496C14.1412 21.496 14.1692 21.5053 14.2065 21.524C14.2625 21.524 14.3185 21.5333 14.3745 21.552C14.5612 21.5893 14.7198 21.5987 14.8505 21.58C14.9065 21.58 14.9998 21.58 15.1305 21.58C15.2612 21.5613 15.4292 21.552 15.6345 21.552C16.4372 21.496 17.0345 21.3933 17.4265 21.244C17.6318 21.1693 17.8372 21.0573 18.0425 20.908C18.2665 20.7587 18.4998 20.572 18.7425 20.348C19.2652 19.8253 19.5825 19.3773 19.6945 19.004C19.7505 18.8733 19.7785 18.7333 19.7785 18.584C19.7972 18.4347 19.7972 18.276 19.7785 18.108C19.7785 17.94 19.7505 17.7533 19.6945 17.548C19.5638 16.9133 19.3212 16.344 18.9665 15.84C18.9105 15.7467 18.8452 15.6627 18.7705 15.588C18.7145 15.5133 18.6492 15.448 18.5745 15.392C18.5185 15.3173 18.4532 15.252 18.3785 15.196C18.3225 15.1213 18.2572 15.0653 18.1825 15.028C18.1265 14.972 18.0612 14.9253 17.9865 14.888C17.9118 14.832 17.8465 14.7853 17.7905 14.748ZM24.6019 14.804C28.0179 14.7667 30.0433 14.748 30.6779 14.748C31.2939 14.7667 31.6299 14.804 31.6859 14.86C31.7979 14.9533 31.8539 15.0933 31.8539 15.28C31.8539 15.4853 31.7326 15.616 31.4899 15.672C31.2473 15.728 30.7619 15.7187 30.0339 15.644C29.5673 15.6067 29.1099 15.588 28.6619 15.588C28.1953 15.588 27.7379 15.6067 27.2899 15.644C26.2073 15.7 25.2646 15.728 24.4619 15.728H23.7339C23.5659 15.728 23.3886 15.756 23.2019 15.812C23.1459 15.8307 23.0899 15.8493 23.0339 15.868C22.9966 15.8867 22.9593 15.9053 22.9219 15.924C22.8846 15.9427 22.8566 15.9613 22.8379 15.98C22.8006 15.9987 22.7633 16.036 22.7259 16.092C22.7073 16.148 22.6699 16.2227 22.6139 16.316C22.5953 16.3533 22.5766 16.4 22.5579 16.456C22.5579 16.4933 22.5486 16.5307 22.5299 16.568C22.5299 16.6053 22.5206 16.652 22.5019 16.708C22.5019 16.7453 22.4926 16.7827 22.4739 16.82C22.4739 16.8573 22.4646 16.9133 22.4459 16.988C22.4459 17.0627 22.4366 17.1467 22.4179 17.24C22.3993 17.3333 22.3806 17.4453 22.3619 17.576C22.2313 18.5467 22.1286 19.2093 22.0539 19.564C21.9606 20.012 21.9326 20.3387 21.9699 20.544L22.0819 20.908V20.936H22.1099L23.0619 20.824C23.6966 20.768 24.0979 20.6933 24.2659 20.6C24.3033 20.5813 24.4246 20.5627 24.6299 20.544C24.8539 20.5253 25.1619 20.5067 25.5539 20.488C25.9646 20.4693 26.4406 20.46 26.9819 20.46C28.1019 20.46 28.8206 20.4693 29.1379 20.488C29.4366 20.5067 29.6233 20.5627 29.6979 20.656H29.7259C29.8566 20.7867 29.8939 20.9453 29.8379 21.132C29.8006 21.3187 29.6793 21.4493 29.4739 21.524C29.2313 21.636 28.9886 21.692 28.7459 21.692C28.5219 21.6733 28.2886 21.608 28.0459 21.496C27.8033 21.3653 27.4299 21.3187 26.9259 21.356C25.9926 21.4493 25.2086 21.5333 24.5739 21.608C23.9579 21.664 23.4819 21.7107 23.1459 21.748C23.0339 21.7667 22.9313 21.7853 22.8379 21.804C22.7446 21.8227 22.6606 21.8413 22.5859 21.86C22.5113 21.8787 22.4366 21.8973 22.3619 21.916C22.3059 21.9347 22.2499 21.9627 22.1939 22C22.1379 22.0187 22.0913 22.0373 22.0539 22.056C22.0353 22.0747 22.0166 22.1027 21.9979 22.14C21.9046 22.252 21.8299 22.5413 21.7739 23.008C21.7179 23.456 21.6713 24.1 21.6339 24.94C21.6153 25.5187 21.5593 26.1253 21.4659 26.76C21.3539 27.488 21.3726 27.908 21.5219 28.02C21.6713 28.132 22.2219 28.16 23.1739 28.104C24.0699 28.0667 24.8539 28.0013 25.5259 27.908C25.8433 27.8707 26.5246 27.7867 27.5699 27.656C27.6633 27.656 27.7659 27.656 27.8779 27.656C28.0086 27.6373 28.1486 27.6187 28.2979 27.6C28.4473 27.5813 28.6153 27.5627 28.8019 27.544C29.0819 27.5253 29.3153 27.5067 29.5019 27.488C29.6886 27.4693 29.8193 27.46 29.8939 27.46C30.0059 27.4413 30.1086 27.432 30.2019 27.432C30.3139 27.432 30.4073 27.432 30.4819 27.432C30.5753 27.4133 30.6593 27.4133 30.7339 27.432C30.8086 27.432 30.8739 27.4413 30.9299 27.46C31.0046 27.46 31.0699 27.4693 31.1259 27.488C31.1819 27.488 31.2286 27.4973 31.2659 27.516C31.3219 27.5533 31.3686 27.5813 31.4059 27.6C31.4433 27.6187 31.4713 27.6373 31.4899 27.656C31.5273 27.6747 31.5459 27.6933 31.5459 27.712C31.5646 27.712 31.5739 27.7213 31.5739 27.74C31.5926 27.796 31.5179 27.9453 31.3499 28.188L31.1259 28.58H29.3899C28.0646 28.58 26.4779 28.7013 24.6299 28.944C24.4246 28.9627 24.2286 28.9813 24.0419 29C23.8553 29.0373 23.6686 29.0653 23.4819 29.084C23.3139 29.1027 23.1459 29.112 22.9779 29.112C22.8099 29.1307 22.6606 29.1493 22.5299 29.168C22.1939 29.1867 21.9139 29.2053 21.6899 29.224C21.4659 29.2613 21.2979 29.2987 21.1859 29.336C20.9619 29.4107 20.7286 29.3827 20.4859 29.252C20.3179 29.1587 20.2246 29.056 20.2059 28.944C20.1873 28.832 20.2339 28.356 20.3459 27.516C20.4766 26.6013 20.5793 25.724 20.6539 24.884C20.8779 22.308 21.0366 20.432 21.1299 19.256C21.2419 18.3413 21.3726 17.4267 21.5219 16.512C21.6899 15.616 21.8019 15.1307 21.8579 15.056C21.9699 14.9253 22.8846 14.8413 24.6019 14.804ZM44.07 29.028C43.9954 29.2333 43.8274 29.3267 43.566 29.308C43.3234 29.308 43.1274 29.224 42.978 29.056C42.8287 28.9067 42.614 28.5613 42.334 28.02C41.8674 27.18 41.5127 26.5827 41.27 26.228C41.046 25.8547 40.7567 25.4627 40.402 25.052C40.0287 24.6227 39.7207 24.2773 39.478 24.016C39.254 23.7547 39.1047 23.5773 39.03 23.484C38.6567 23.0173 38.1527 22.504 37.518 21.944L36.65 21.132L34.718 21.272C33.4487 21.3467 32.7767 21.4307 32.702 21.524C32.6834 21.58 32.6647 21.804 32.646 22.196C32.6274 22.5693 32.6087 23.1013 32.59 23.792C32.534 25.2667 32.4687 26.396 32.394 27.18C32.3754 27.5347 32.3567 27.8613 32.338 28.16C32.338 28.44 32.3474 28.608 32.366 28.664C32.422 28.9627 32.338 29.1773 32.114 29.308C31.8714 29.4387 31.6567 29.392 31.47 29.168C31.2834 28.9627 31.2554 28.5427 31.386 27.908C31.5354 27.1053 31.6194 23.9787 31.638 18.528V17.604C31.638 16.596 31.6474 15.8027 31.666 15.224C31.6847 14.6453 31.7127 14.272 31.75 14.104C31.8247 13.7493 32.086 13.572 32.534 13.572H32.702C32.8327 13.572 32.982 13.572 33.15 13.572C33.3367 13.5533 33.542 13.5253 33.766 13.488C34.214 13.4507 34.6247 13.3947 34.998 13.32C35.3527 13.264 35.558 13.2173 35.614 13.18C35.67 13.124 36.0527 13.096 36.762 13.096C37.266 13.096 37.6114 13.124 37.798 13.18C37.9847 13.2173 38.302 13.348 38.75 13.572C39.422 13.908 39.982 14.2907 40.43 14.72L41.214 15.448L41.186 16.652C41.186 16.82 41.1767 16.9787 41.158 17.128C41.158 17.2773 41.1487 17.4173 41.13 17.548C41.13 17.6787 41.1207 17.7907 41.102 17.884C41.0834 17.9773 41.0647 18.0613 41.046 18.136C41.0274 18.2107 40.99 18.2853 40.934 18.36C40.8967 18.4347 40.85 18.5187 40.794 18.612C40.738 18.7053 40.6727 18.7987 40.598 18.892C40.5234 18.9853 40.4394 19.088 40.346 19.2C40.1594 19.3867 39.9634 19.564 39.758 19.732C39.5527 19.8813 39.3194 20.012 39.058 20.124C38.8154 20.236 38.61 20.3387 38.442 20.432C38.2927 20.5067 38.1807 20.5813 38.106 20.656L38.05 20.684C37.994 20.7587 37.994 20.8333 38.05 20.908C38.0874 20.9453 38.1714 21.0293 38.302 21.16C38.4327 21.2907 38.61 21.4587 38.834 21.664C38.8714 21.7013 38.8994 21.7293 38.918 21.748C38.9554 21.7667 38.9927 21.7947 39.03 21.832L39.114 21.916C39.282 22.084 39.4314 22.2427 39.562 22.392C39.6927 22.5227 39.8047 22.6533 39.898 22.784C40.01 22.896 40.094 22.9987 40.15 23.092C40.374 23.372 40.7194 23.7827 41.186 24.324C41.41 24.5853 41.6154 24.856 41.802 25.136C42.0074 25.3973 42.194 25.668 42.362 25.948C42.698 26.508 42.9127 26.816 43.006 26.872C43.0434 26.9093 43.0714 26.9467 43.09 26.984C43.1087 27.0027 43.1274 27.0307 43.146 27.068C43.1647 27.0867 43.174 27.1147 43.174 27.152C43.174 27.2267 43.3327 27.4973 43.65 27.964C43.874 28.3 44.0047 28.524 44.042 28.636C44.098 28.7667 44.1074 28.8973 44.07 29.028ZM39.674 15.42C39.282 15.0653 38.8434 14.776 38.358 14.552C37.8914 14.328 37.406 14.2067 36.902 14.188C36.4167 14.1693 35.9594 14.1787 35.53 14.216C35.1007 14.2347 34.69 14.2813 34.298 14.356C33.514 14.5053 33.01 14.7107 32.786 14.972C32.7674 14.9907 32.7487 15.0187 32.73 15.056C32.7114 15.0747 32.6927 15.1027 32.674 15.14C32.674 15.1773 32.6647 15.2147 32.646 15.252C32.646 15.2893 32.6367 15.3267 32.618 15.364C32.618 15.4013 32.618 15.448 32.618 15.504C32.5994 15.616 32.59 15.8587 32.59 16.232C32.59 16.5867 32.59 17.072 32.59 17.688C32.6087 19.3307 32.646 20.1987 32.702 20.292C32.814 20.4227 33.7474 20.4227 35.502 20.292C36.0807 20.2547 36.4727 20.208 36.678 20.152C36.734 20.1333 36.818 20.1053 36.93 20.068C37.0607 20.012 37.2007 19.956 37.35 19.9C37.4994 19.8253 37.6767 19.7413 37.882 19.648C38.7594 19.2187 39.366 18.7707 39.702 18.304C39.8887 18.08 40.0194 17.828 40.094 17.548C40.1874 17.2493 40.234 16.9227 40.234 16.568C40.234 16.288 40.206 16.1013 40.15 16.008C40.1127 15.9147 39.954 15.7187 39.674 15.42ZM49.1275 33.8C50.8555 31.04 52.4155 27.008 52.4155 22.304C52.4155 17.6 50.8555 13.568 49.1275 10.808H50.7835C52.6555 13.664 54.3115 16.928 54.3115 22.304C54.3115 27.68 52.6555 30.944 50.7835 33.8H49.1275ZM61.726 29.12C61.462 28.808 61.39 28.256 61.51 27.8C62.95 27.8 63.31 27.704 63.31 27.224V14.912C63.31 14.456 63.022 14.36 61.942 14.36C61.726 14.36 61.63 14.288 61.63 14.144C61.63 13.76 61.702 13.352 61.798 13.088H67.75C73.078 13.088 73.99 15.176 73.99 17.768C73.99 20.36 72.262 22.448 67.918 22.448H65.374V27.224C65.374 27.728 65.758 27.8 67.654 27.8C67.87 27.8 67.966 27.872 67.966 28.016C67.966 28.424 67.894 28.856 67.798 29.12H61.726ZM65.374 20.936H67.798C70.414 20.936 71.83 19.856 71.83 17.768C71.83 15.704 70.774 14.6 67.75 14.6H66.622C65.662 14.6 65.374 14.6 65.374 15.152V20.936ZM74.4713 29.12C74.2073 28.808 74.1353 28.256 74.2553 27.8C75.6953 27.8 76.0553 27.704 76.0553 27.224V14.912C76.0553 14.456 75.7673 14.36 74.6873 14.36C74.4713 14.36 74.3753 14.288 74.3753 14.144C74.3753 13.76 74.4473 13.352 74.5433 13.088H86.1593V16.04C86.1593 16.376 85.9913 16.544 85.6553 16.544H84.6233C84.6233 15.032 84.3113 14.576 83.4233 14.576H79.3673C78.4073 14.576 78.1193 14.576 78.1193 15.128V20.144H82.3433C82.6793 20.144 82.8233 19.808 82.8233 18.752H83.7833C84.0953 18.752 84.2393 18.896 84.2393 19.208V22.568C84.2393 22.88 84.0953 23.024 83.7833 23.024H82.8233C82.8233 22.112 82.8473 21.608 82.3433 21.608H78.1193V27.032C78.1193 27.632 78.2873 27.632 79.0553 27.632H83.5673C84.4553 27.632 84.7673 27.104 84.7673 25.256H85.7993C86.1353 25.256 86.3033 25.424 86.3033 25.76V29.12H74.4713ZM90.556 29.12C90.292 28.808 90.22 28.256 90.34 27.8C92.02 27.8 92.38 27.704 92.38 27.224V14.6H89.26C88.372 14.6 88.06 15.032 88.06 16.904H87.124C86.788 16.904 86.644 16.736 86.644 16.4V13.088H100.18V16.4C100.18 16.736 100.012 16.904 99.676 16.904H98.764C98.764 15.032 98.452 14.6 97.564 14.6H94.444V27.224C94.444 27.68 94.78 27.8 96.196 27.8C96.412 27.8 96.508 27.872 96.508 28.016C96.508 28.424 96.436 28.856 96.34 29.12H90.556Z" fill="black"/>
<path d="M102.752 8.13281V7.75781H105.852V8.13281H104.516V12H104.094V8.13281H102.752ZM106.307 7.75781H106.794L108.311 11.4023H108.352L109.864 7.75781H110.356V12H109.958V8.61914H109.923L108.516 12H108.141L106.735 8.61914H106.7V12H106.307V7.75781Z" fill="black"/>
</svg>
